<svg id="Layer_1" data-name="Layer 1" xmlns="http://www.w3.org/2000/svg" viewBox="0 0 125.58 148.82"><defs><style>.cls-1{fill:#5595b9;}.cls-2{fill:#94c5e0;}</style></defs><title>nabu_fav</title><path class="cls-1" d="M97.82,73.83A11.26,11.26,0,0,0,86.45,85.21v79.6H63.71V85.21A34.07,34.07,0,0,1,97.82,51.09h22.74a34.07,34.07,0,0,1,34.12,34.12v79.6H131.94V85.21a11.26,11.26,0,0,0-11.37-11.37Z" transform="translate(-63.71 -51.09)"/><path class="cls-2" d="M155.18,177.17a11.26,11.26,0,0,0,11.37-11.37V86.19h22.74v79.6a34.07,34.07,0,0,1-34.12,34.12H132.43a34.07,34.07,0,0,1-34.12-34.12V86.19h22.74v79.6a11.26,11.26,0,0,0,11.37,11.37Z" transform="translate(-63.71 -51.09)"/><script xmlns=""/></svg>